
<mxfile>
  <diagram name="Modelo Conceitual">
    <mxGraphModel dx="900" dy="600" grid="1" gridSize="10" guides="1" tooltips="1" connect="1" arrows="1" fold="1" page="1" pageScale="1" pageWidth="827" pageHeight="1169" math="0" shadow="0">
      <root>
        <mxCell id="0" />
        <mxCell id="1" parent="0" />
        <mxCell id="2" value="Pedido" style="rounded=1;whiteSpace=wrap;html=1;fillColor=lightblue;" vertex="1" parent="1">
          <mxGeometry x="80" y="80" width="120" height="100" as="geometry" />
        </mxCell>
        <mxCell id="3" value="Presença" style="rounded=1;whiteSpace=wrap;html=1;fillColor=lightyellow;" vertex="1" parent="1">
          <mxGeometry x="300" y="80" width="120" height="100" as="geometry" />
        </mxCell>
        <mxCell id="4" value="Usuários" style="rounded=1;whiteSpace=wrap;html=1;fillColor=lightgreen;" vertex="1" parent="1">
          <mxGeometry x="80" y="300" width="120" height="100" as="geometry" />
        </mxCell>
        <mxCell id="5" value="Monitorias" style="rounded=1;whiteSpace=wrap;html=1;fillColor=lightpink;" vertex="1" parent="1">
          <mxGeometry x="300" y="300" width="120" height="100" as="geometry" />
        </mxCell>
        <mxCell id="6" value="Feedback" style="rounded=1;whiteSpace=wrap;html=1;fillColor=lightcoral;" vertex="1" parent="1">
          <mxGeometry x="500" y="300" width="120" height="100" as="geometry" />
        </mxCell>
        <mxCell id="7" value="Documento" style="rounded=1;whiteSpace=wrap;html=1;fillColor=lightcyan;" vertex="1" parent="1">
          <mxGeometry x="300" y="500" width="120" height="100" as="geometry" />
        </mxCell>
        <mxCell id="8" value="Avisos" style="rounded=1;whiteSpace=wrap;html=1;fillColor=lightgray;" vertex="1" parent="1">
          <mxGeometry x="500" y="500" width="120" height="100" as="geometry" />
        </mxCell>
        <mxCell id="9" style="edgeStyle=orthogonalEdgeStyle;rounded=1;" edge="1" parent="1" source="2" target="4">
          <mxGeometry relative="1" as="geometry" />
        </mxCell>
        <mxCell id="10" style="edgeStyle=orthogonalEdgeStyle;rounded=1;" edge="1" parent="1" source="2" target="5">
          <mxGeometry relative="1" as="geometry" />
        </mxCell>
        <mxCell id="11" style="edgeStyle=orthogonalEdgeStyle;rounded=1;" edge="1" parent="1" source="3" target="4">
          <mxGeometry relative="1" as="geometry" />
        </mxCell>
        <mxCell id="12" style="edgeStyle=orthogonalEdgeStyle;rounded=1;" edge="1" parent="1" source="3" target="5">
          <mxGeometry relative="1" as="geometry" />
        </mxCell>
        <mxCell id="13" style="edgeStyle=orthogonalEdgeStyle;rounded=1;" edge="1" parent="1" source="4" target="6">
          <mxGeometry relative="1" as="geometry" />
        </mxCell>
        <mxCell id="14" style="edgeStyle=orthogonalEdgeStyle;rounded=1;" edge="1" parent="1" source="5" target="6">
          <mxGeometry relative="1" as="geometry" />
        </mxCell>
        <mxCell id="15" style="edgeStyle=orthogonalEdgeStyle;rounded=1;" edge="1" parent="1" source="5" target="7">
          <mxGeometry relative="1" as="geometry" />
        </mxCell>
        <mxCell id="16" style="edgeStyle=orthogonalEdgeStyle;rounded=1;" edge="1" parent="1" source="5" target="8">
          <mxGeometry relative="1" as="geometry" />
        </mxCell>
      </root>
    </mxGraphModel>
  </diagram>
</mxfile>
